<?xml version="1.0" encoding="utf-8"?>
<!-- Generator: Adobe Illustrator 14.0.0, SVG Export Plug-In . SVG Version: 6.00 Build 43363)  -->
<!DOCTYPE svg PUBLIC "-//W3C//DTD SVG 1.1//EN" "http://www.w3.org/Graphics/SVG/1.1/DTD/svg11.dtd">
<svg version="1.1" id="Layer_1" xmlns="http://www.w3.org/2000/svg" xmlns:xlink="http://www.w3.org/1999/xlink" x="0px" y="0px"
	 width="250px" height="161px" viewBox="0 0 250 161" enable-background="new 0 0 250 161" xml:space="preserve">
<g>
	<g>
		<g>
			<g>
				<path fill="#FFFFFF" d="M97.425,7.923l-1.103,0.272l0.022,41.439c-0.072,16.487,15.049,21.047,24.072,23.759
					c2.616,0.788,6.192,2.046,7.083,2.908c0.864-0.862,4.438-2.12,7.031-2.908c8.949-2.712,23.926-7.272,23.976-23.759L158.479,8.24
					l-1.075-0.304c-0.46-0.135-11.691-3.196-29.162-3.196C110.817,4.74,97.976,7.801,97.425,7.923"/>
				<path fill="#0B1E73" d="M87.969,88.259c2.233,0,2.233,2.21,2.233,2.21v30.365c0,0,0,2.213-2.233,2.213h2.233h4.655h2.208
					c-2.136,0-2.208-2.046-2.208-2.196v-14.046h11.209c2.208,0,2.208,2.211,2.208,2.211v-2.211v-2.426v-2.21c0,0,0,2.21-2.208,2.21
					H94.928v-13.91c0.865,0,9.888,0,13.562,0c2.208,0,2.208,2.215,2.208,2.215v-2.215v-2.21H90.202H87.969 M37.353,88.259h-2.208
					c0,0-3.12,0-4.873,0h-2.231c2.231,0,2.231,2.21,2.231,2.21v13.896H11.937c0-3.638,0-9.167,0-13.896c0,0,0-2.21,2.233-2.21
					h-2.233H7.208H5c2.208,0,2.208,2.21,2.208,2.21v30.365c0,0,0,2.213-2.208,2.213h2.208h4.729h2.233
					c-2.233,0-2.233-2.213-2.233-2.213v-14.182h18.335c0,4.637,0,10.743,0,14.182c0,0,0,2.213-2.231,2.213h2.231h4.873h2.208
					c-2.208,0-2.208-2.213-2.208-2.213V90.469C35.145,90.469,35.145,88.259,37.353,88.259z M143.119,90.469v2.215
					c0,0,0-2.215,2.211-2.215h10.128v30.365c0,0,0,2.213-2.232,2.213h2.232h4.871h2.206c-2.206,0-2.206-2.213-2.206-2.213V90.469
					h10.943c2.21,0,2.21,2.215,2.21,2.215v-2.215v-2.21h-30.363V90.469z M62.672,87.894c-11.808,0-19.704,8.486-19.704,18.245
					c0,11.362,8.857,17.424,19.775,17.424c10.946,0,19.512-6.426,19.512-17.729C82.256,96.092,74.504,87.894,62.672,87.894z
					 M62.672,121.199c-8.112,0-14.254-6.35-14.254-15.061c0-7.547,4.366-15.818,14.254-15.818c9.84,0,14.112,7.983,14.112,15.513
					C76.785,114.622,70.737,121.273,62.672,121.199z M126.993,101.772c-2.64-1.409-5.089-3.106-5.089-6.649
					c0-3.319,2.953-4.866,6.216-4.866c2.138,0,7.995,1.018,8.782,6.244v-5.803c-2.205-1.85-5.686-2.805-8.639-2.805
					c-4.655,0-10.271,2.882-10.271,8.851c0,7.394,6.792,9.089,11.663,11.682c2.665,1.394,5.113,3.167,5.113,6.728
					c0,3.469-3.047,5.908-7.319,5.908c-3.024,0-9.097-1.485-10.704-7.394v6.062c3.095,2.498,6.336,3.682,10.847,3.682
					c5.83,0,11.304-3.605,11.304-10.105C138.896,105.909,131.96,104.212,126.993,101.772z M234.799,123.047H245
					c-2.184,0-3.048-2.258-3.048-2.258l-15.049-33.472l-14.9,33.442c0,0-0.648,1.711-2.26,2.182
					c-5.182-1.425-7.536-15.819-15.598-15.819c4.294-1.408,8.327-4.832,8.327-9.484c0-4.804-4.15-9.379-12.577-9.379
					c0,0-1.944,0-4.056,0c-1.968,0-3.574,0-4.438,0h-2.211c2.211,0,2.211,2.21,2.211,2.21v30.365c0,0,0,2.213-2.211,2.213h2.211
					h4.438h2.21c-2.21,0-2.21-2.213-2.21-2.213v-12.879c16.079,0,11.447,15.092,19.73,15.092h3.381h1.656h4.92
					c-2.377,0-1.03-2.287-1.03-2.287l4.178-9.606h13.869c1.346,3.165,2.737,6.591,3.912,9.606
					C236.771,121.562,237.369,123.047,234.799,123.047z M185.84,90.622h1.994c7.607,0,9.984,3.545,9.984,7.394
					c0,4.5-2.903,8.197-11.979,8.197V90.622z M219.705,108.79l5.901-13.88c0.892,2.059,3.629,8.485,5.979,13.88H219.705z"/>
				<path fill="#0B1E73" d="M120.849,154.229h-7.799v-7.319h5.832c1.175,0,1.175,1.152,1.175,1.152v-3.574c0,0,0,1.15-1.175,1.15
					h-5.809v-7.259h7.081c1.152,0,1.152,1.168,1.152,1.168v-2.318h-11.857c1.152,0,1.152,1.15,1.152,1.15v15.85
					c0,0,0,1.152-1.152,1.152h12.553v-2.305C122.001,153.077,122.001,154.229,120.849,154.229 M186.394,139.548
					c0,0,0-1.168,1.152-1.168h5.28v15.85c0,0,0,1.152-1.18,1.152h4.875c-1.152,0-1.152-1.152-1.152-1.152v-15.85h5.686
					c1.18,0,1.18,1.168,1.18,1.168v-2.318h-15.841V139.548z M138.393,147.076c2.232-0.74,4.344-2.529,4.344-4.951
					c0-2.503-2.16-4.896-6.55-4.896c0,0-1.008,0-2.138,0h-3.457c1.152,0,1.152,1.15,1.152,1.15v15.85c0,0,0,1.152-1.152,1.152h4.632
					c-1.175,0-1.175-1.152-1.175-1.152v-6.728c8.399,0,5.978,7.88,10.295,7.88h2.643
					C143.961,155.396,142.831,147.076,138.393,147.076z M134.049,138.472h1.058c3.957,0,5.208,1.848,5.208,3.849
					c0,2.348-1.512,4.272-6.266,4.272V138.472z M158.623,144.29c-1.392-0.743-2.66-1.62-2.66-3.471c0-1.742,1.534-2.543,3.236-2.543
					c1.107,0,4.178,0.528,4.587,3.257v-3.032c-1.152-0.954-2.976-1.468-4.515-1.468c-2.422,0-5.353,1.513-5.353,4.637
					c0,3.847,3.529,4.74,6.072,6.091c1.396,0.725,2.665,1.652,2.665,3.498c0,1.818-1.585,3.093-3.817,3.093
					c-1.58,0-4.727-0.774-5.591-3.865v3.167c1.634,1.304,3.313,1.925,5.663,1.925c3.052,0,5.906-1.894,5.906-5.287
					C164.817,146.441,161.193,145.564,158.623,144.29z M178.664,137.229h-4.561c1.152,0,1.152,1.15,1.152,1.15v15.85
					c0,0,0,1.152-1.152,1.152h4.561c-1.152,0-1.152-1.152-1.152-1.152v-15.85C177.512,138.38,177.512,137.229,178.664,137.229z
					 M78.896,137.229H74.36c1.153,0,1.153,1.15,1.153,1.15v15.85c0,0,0,1.152-1.177,1.152h4.56c-1.15,0-1.15-1.152-1.15-1.152
					v-15.85C77.746,138.38,77.746,137.229,78.896,137.229z M63.201,138.38v12.834c-0.72-0.788-11.329-12.604-12.409-13.984h-2.496
					c1.152,0,1.152,1.15,1.152,1.15v15.85c0,0,0,1.152-1.152,1.152h3.648c-1.152,0-1.152-1.152-1.152-1.152
					c0-5.379,0-13.606,0-13.606l13.8,15.409V138.38c0,0,0-1.15,1.152-1.15h-3.696C63.201,137.229,63.201,138.38,63.201,138.38z
					 M37.929,138.38v10.061c0,3.093-2.111,5.562-5.544,5.562c-3.408,0-5.255-2.318-5.255-5.484V138.38c0,0,0-1.15,1.175-1.15h-4.945
					c1.153,0,1.153,1.15,1.153,1.15v10.061c0,4.394,2.784,7.288,7.441,7.288c3.239,0,7.151-2.12,7.151-7.029V138.38
					c0,0,0-1.15,1.152-1.15h-3.479C37.929,137.229,37.929,138.38,37.929,138.38z M100.977,138.38l-5.857,13.531
					c-0.743-1.652-3.912-8.97-5.71-13.514c-0.169-0.409-0.457-1.168,0.623-1.168h-4.632c0.792,0,1.08,0.666,1.271,1.15
					c2.017,4.607,7.705,17.88,7.705,17.88l7.871-17.88c0,0,0.529-1.15,1.296-1.15h-3.12
					C101.625,137.229,100.977,138.38,100.977,138.38z M222.874,137.229c1.197,0,0.217,1.15,0.217,1.15l-5.74,7.684
					c-0.359-0.531-2.759-4.047-5.132-7.666c-0.266-0.396-0.459-1.168,0.288-1.168c0,0-3.457,0-4.632,0
					c0.788,0,1.292,0.713,1.58,1.168c2.066,3.059,5.784,8.589,6.194,9.197v6.635c0,0,0,1.152-1.152,1.152h4.848
					c-1.152,0-1.152-1.152-1.152-1.152v-7.637l6.217-8.213c0,0,0.793-1.15,1.68-1.15H222.874z"/>
				<path fill="#FEB612" d="M106.592,16.832V48.53c0,14.016,18.288,14.259,20.907,16.863c2.615-2.604,20.9-2.847,20.9-16.863V16.832
					c0,0-5.353-1.531-20.9-1.591C111.944,15.166,106.592,16.832,106.592,16.832"/>
				<path fill="#0B1E73" d="M150.272,49.545c0,14.605-19.92,15.107-22.773,17.938c-2.858-2.831-22.777-3.333-22.777-17.938V15
					c0,0,5.832-1.819,22.777-1.745C144.442,13.316,150.272,15,150.272,15V49.545 M128.241,6.62c-17.255,0-30.096,3.106-30.096,3.106
					l0.024,39.803c-0.072,20.593,25.607,21.032,29.33,24.728c3.718-3.696,29.111-4.135,29.184-24.728l-0.027-39.803
					C156.655,9.726,145.496,6.62,128.241,6.62z"/>
				<path fill="#0B1E73" d="M146.527,16.361l-4.776,2.078l-6.406,15.758c-2.57-0.167-5.186-0.274-7.729-0.274
					c-1.248,0-2.52,0.031-3.814,0.077l7.92-18.788c-1.49-0.032-2.904-0.061-4.223-0.061l-4.994,2.152l-9.985,23.863
					c1.679-0.167,4.056-0.317,6.048-0.439l-7.367,3.606l-3.792,9.106c1.081,2.773,3.072,4.743,5.663,6.35l7.993-19.229
					c2.064-0.09,4.247-0.137,6.551-0.137c3.623,0,6.887,0.122,9.817,0.319l-6.095,2.924l-8.282,20.03
					c1.823,0.547,3.743,1.107,4.442,1.79c0.693-0.682,2.71-1.274,3.813-1.607l17.16-41.244v-5.879
					C147.706,16.559,147.369,16.499,146.527,16.361"/>
				<path fill="#0B1E73" d="M225.44,150.093c1.535,0,2.736,1.242,2.736,2.805c0,1.575-1.201,2.802-2.759,2.802
					c-1.513,0-2.76-1.227-2.76-2.802c0-1.563,1.247-2.805,2.76-2.805H225.44 M225.418,150.534c-1.225,0-2.233,1.058-2.233,2.363
					c0,1.332,1.009,2.377,2.256,2.377c1.247,0.016,2.232-1.045,2.232-2.363c0-1.319-0.985-2.377-2.232-2.377H225.418z
					 M224.914,154.531h-0.505v-3.119c0.266-0.046,0.505-0.077,0.887-0.077c0.482,0,0.771,0.09,0.959,0.228
					c0.193,0.138,0.288,0.349,0.288,0.65c0,0.41-0.261,0.652-0.599,0.759v0.031c0.266,0.045,0.455,0.286,0.504,0.759
					c0.095,0.483,0.167,0.666,0.217,0.77h-0.527c-0.071-0.104-0.144-0.392-0.216-0.802c-0.072-0.394-0.266-0.544-0.675-0.544h-0.333
					V154.531z M224.914,152.789h0.359c0.405,0,0.743-0.135,0.743-0.529c0-0.271-0.193-0.547-0.743-0.547
					c-0.166,0-0.288,0.016-0.359,0.032V152.789z"/>
			</g>
		</g>
	</g>
</g>
</svg>
